<!DOCTYPE svg PUBLIC "-//W3C//DTD SVG 1.1//EN" "http://www.w3.org/Graphics/SVG/1.1/DTD/svg11.dtd">
<!-- Uploaded to: SVG Repo, www.svgrepo.com, Transformed by: SVG Repo Mixer Tools -->
<svg fill="#e6e6e6" width="800px" height="800px" viewBox="0 0 32 32" xmlns="http://www.w3.org/2000/svg" stroke="#e6e6e6" stroke-width="0.16">
<g id="SVGRepo_bgCarrier" stroke-width="0"/>
<g id="SVGRepo_tracerCarrier" stroke-linecap="round" stroke-linejoin="round"/>
<g id="SVGRepo_iconCarrier"> <g data-name="8. Bank" id="_8._Bank"> <path d="M31,30H29V27a1,1,0,0,0-1-1V20a1,1,0,0,0,1-1V16h2a1,1,0,0,0,0-2h-.59L16.71.29a1,1,0,0,0-1.42,0L1.59,14H1a1,1,0,0,0,0,2H3v3a1,1,0,0,0,1,1v6a1,1,0,0,0-1,1v3H1a1,1,0,0,0,0,2H31a1,1,0,0,0,0-2Zm-5-4H22V20h4Zm-7,1v3H13V27a1,1,0,0,0-1-1V20a1,1,0,0,0,1-1V16h6v3a1,1,0,0,0,1,1v6A1,1,0,0,0,19,27Zm8-9H21V16h6ZM16,2.41,27.59,14H4.41ZM11,16v2H5V16ZM6,20h4v6H6ZM5,30V28h6v2Zm16,0V28h6v2Z"/> <path d="M16,12a3,3,0,1,0-3-3A3,3,0,0,0,16,12Zm0-4a1,1,0,1,1-1,1A1,1,0,0,1,16,8Z"/> </g> </g>
</svg>